<?xml version="1.0" encoding="UTF-8" standalone="no"?>
<svg
   viewBox="0 0 289.51599 268.59332"
   height="268.59332"
   width="289.51599"
   xml:space="preserve"
   id="svg2"
   version="1.1"
   xmlns="http://www.w3.org/2000/svg"
   xmlns:svg="http://www.w3.org/2000/svg">

  <defs
   id="defs6" />
  <g
   id="g194"
   transform="translate(0,0.00532657)"><g
     transform="matrix(1.3333333,0,0,-1.3333333,0,403.69333)"
     id="g10">
    <g
   transform="scale(0.1)"
   id="g12">
      <path
   id="path14"
   style="fill:#28429e;fill-opacity:1;fill-rule:nonzero;stroke:none"
   d="m 162.441,1013.29 h 488.067 v 884.78 H 162.441 v -884.78" />
      <path
   id="path16"
   style="fill:#2ca345;fill-opacity:1;fill-rule:nonzero;stroke:none"
   d="m 0,2852.65 77.3789,-884.51 486.2111,42.52 -21.985,251.37 4.934,0.41 90.047,-245.39 401.514,35.13 L 745.891,2917.91 0,2852.65" />
      <path
   id="path18"
   style="fill:#2ca345;fill-opacity:1;fill-rule:nonzero;stroke:none"
   d="m 2001.29,3027.74 -745.9,-65.26 -137.42,-903.32 401.51,35.14 46.05,257.31 4.96,0.44 21.99,-251.37 486.19,42.55 -77.38,884.51" />
      <path
   id="path20"
   style="fill:#28429e;fill-opacity:1;fill-rule:nonzero;stroke:none"
   d="m 1683.32,1013.29 h 488.05 v 884.78 h -488.05 v -884.78" />
      <path
   id="path22"
   style="fill:#28429e;fill-opacity:1;fill-rule:nonzero;stroke:none"
   d="m 1169.39,1743.21 h -4.97 l -37.6,154.86 H 723.777 L 963.324,1013.29 H 1370.5 l 239.53,884.78 H 1207 l -37.61,-154.86" />
    </g>
  </g></g>
</svg>
