<?xml version="1.0" encoding="UTF-8" standalone="no"?>
<svg
   viewBox="0 0 234.63066 264.27213"
   height="264.27213"
   width="234.63066"
   xml:space="preserve"
   id="svg2"
   version="1.1"
   xmlns="http://www.w3.org/2000/svg"
   xmlns:svg="http://www.w3.org/2000/svg">

  <defs
   id="defs6" />
  <g
   transform="matrix(1.3333333,0,0,-1.3333333,-304.03599,394.05332)"
   id="g10">
    <g
   transform="scale(0.1)"
   id="g12">
      <path
   id="path24"
   style="fill:#f25221;fill-opacity:1;fill-rule:nonzero;stroke:none"
   d="m 3272.46,2491.78 c 173.82,0 303.1,-81.65 375.53,-203.05 l 382.22,267.55 c -151.65,244.02 -429.84,399.12 -772.7,399.12 -228.45,0 -439.33,-76.4 -602.82,-208.15 l 344.59,-344.59 c 72.52,56.27 165.67,89.12 273.18,89.12" />
      <path
   id="path26"
   style="fill:#ef289b;fill-opacity:1;fill-rule:nonzero;stroke:none"
   d="m 3594.26,1629.23 c -77.83,-125.03 -207.81,-194.74 -364.32,-194.74 -107.17,0 -200.1,33.47 -272.52,92.3 L 2609.03,1178.4 c 158.78,-130.05 366.4,-205.041 603.45,-205.041 382.48,0 700.02,174.391 827.52,447.461 l -445.74,208.41" />
      <path
   id="path28"
   style="fill:#d41f2f;fill-opacity:1;fill-rule:nonzero;stroke:none"
   d="m 2791.24,1915.56 c 0,149.81 61.48,278.79 165.52,359.52 l -344.6,344.59 c -202.2,-162.92 -331.89,-410.57 -331.89,-704.11 0,-309.13 123.6,-569.12 328.77,-737.16 l 348.38,348.39 c -104.44,84.84 -166.18,222.44 -166.18,388.77" />
    </g>
  </g>
</svg>
